<svg xmlns="http://www.w3.org/2000/svg" xmlns:xlink="http://www.w3.org/1999/xlink" xmlns:lucid="lucid" width="920" height="580"><g transform="translate(-475.43307086614163 -371.4173228346456)" lucid:page-tab-id="zNTQ9FFSWw3p"><path d="M495.43 397.42c0-3.32 2.7-6 6-6h868c3.32 0 6 2.68 6 6v528c0 3.3-2.68 6-6 6h-868c-3.3 0-6-2.7-6-6z" fill-opacity="0"/><path d="M800 452.42c0-3.32 2.7-6 6-6h108c3.3 0 6 2.68 6 6v68c0 3.3-2.7 6-6 6H806c-3.3 0-6-2.7-6-6z" stroke="#5e5e5e" stroke-width="2" fill="#fff"/><use xlink:href="#a" transform="matrix(1,0,0,1,812,458.4173228346456) translate(22.104938271604937 31.77777777777778)"/><path d="M700.43 657.42c0-3.32 2.7-6 6-6h41c2.76 0 5-2.24 5-5s1.5-3.34 3.35-1.3l10.64 11.84c2.22 2.46 2.22 6.45 0 8.92l-10.64 11.82c-1.85 2.05-3.35 1.48-3.35-1.28s-2.24-5-5-5h-41c-3.3 0-6-2.7-6-6zM515.43 597.42c0-3.32 2.7-6 6-6h148c3.32 0 6 2.68 6 6v108c0 3.3-2.68 6-6 6h-148c-3.3 0-6-2.7-6-6z" stroke="#5e5e5e" stroke-width="2" fill="#fff"/><use xlink:href="#b" transform="matrix(1,0,0,1,527.4330708661416,603.4173228346456) translate(6.333333333333329 53.77777777777778)"/><path d="M1015.43 452.42c0-3.32 2.7-6 6-6h108c3.32 0 6 2.68 6 6v68c0 3.3-2.68 6-6 6h-108c-3.3 0-6-2.7-6-6z" stroke="#ffbbb1" stroke-width="2" fill="#ffbbb1"/><use xlink:href="#c" transform="matrix(1,0,0,1,1027.4330708661416,458.4173228346456) translate(15.932098765432102 31.77777777777778)"/><use xlink:href="#d" transform="matrix(1,0,0,1,1027.4330708661416,458.4173228346456) translate(67.72222222222223 31.77777777777778)"/><path d="M1135.43 452.42c0-3.32 2.7-6 6-6h108c3.32 0 6 2.68 6 6v68c0 3.3-2.68 6-6 6h-108c-3.3 0-6-2.7-6-6z" stroke="#c3f7c8" stroke-width="2" fill="#c3f7c8"/><use xlink:href="#c" transform="matrix(1,0,0,1,1147.4330708661416,458.4173228346456) translate(15.932098765432102 31.77777777777778)"/><use xlink:href="#e" transform="matrix(1,0,0,1,1147.4330708661416,458.4173228346456) translate(67.72222222222223 31.77777777777778)"/><path d="M1255.43 452.42c0-3.32 2.7-6 6-6h68c3.32 0 6 2.68 6 6v68c0 3.3-2.68 6-6 6h-68c-3.3 0-6-2.7-6-6z" stroke="#ffdda6" stroke-width="2" fill="#ffdda6"/><use xlink:href="#f" transform="matrix(1,0,0,1,1267.4330708661416,458.4173228346456) translate(20.592592592592595 31.77777777777778)"/><path d="M1055.43 777.42c0-3.32 2.7-6 6-6h108c3.32 0 6 2.68 6 6v68c0 3.3-2.68 6-6 6h-108c-3.3 0-6-2.7-6-6z" stroke="#ffbbb1" stroke-width="2" fill="#ffbbb1"/><use xlink:href="#g" transform="matrix(1,0,0,1,1067.4330708661416,783.4173228346456) translate(25.19135802469136 31.77777777777778)"/><path d="M1175.43 777.42c0-3.32 2.7-6 6-6h108c3.32 0 6 2.68 6 6v68c0 3.3-2.68 6-6 6h-108c-3.3 0-6-2.7-6-6z" stroke="#ffdda6" stroke-width="2" fill="#ffdda6"/><use xlink:href="#h" transform="matrix(1,0,0,1,1187.4330708661416,783.4173228346456) translate(6.950617283950621 31.77777777777778)"/><use xlink:href="#i" transform="matrix(1,0,0,1,1187.4330708661416,783.4173228346456) translate(27.506172839506174 31.77777777777778)"/><path d="M1175.8 762.67c-3.3 0-6-2.7-6-6v-19.25c0-2.07-1.67-3.75-3.74-3.75-2.07 0-2.5-1.13-.96-2.5l7.75-7c2.46-2.2 6.45-2.2 8.92 0l7.75 7c1.54 1.37 1.1 2.5-.96 2.5-2.07 0-3.75 1.68-3.75 3.75v19.25c0 3.3-2.68 6-6 6z" stroke="#5e5e5e" stroke-width="2" fill="#fff"/><path d="M1091.68 660.17c0 11.73-9.5 21.25-21.25 21.25-11.73 0-21.25-9.52-21.25-21.25 0-11.74 9.52-21.25 21.25-21.25 11.74 0 21.25 9.5 21.25 21.25z" stroke="#5e5e5e" stroke-width="2" fill="#c7e8ac"/><path d="M1162.3 622.67c0 11.73-9.5 21.25-21.24 21.25-11.74 0-21.25-9.52-21.25-21.25 0-11.74 9.52-21.25 21.26-21.25 11.73 0 21.25 9.5 21.25 21.25zM1162.3 690.17c0 11.73-9.5 21.25-21.24 21.25-11.74 0-21.25-9.52-21.25-21.25 0-11.74 9.52-21.25 21.26-21.25 11.73 0 21.25 9.5 21.25 21.25zM1232.93 622.67c0 11.73-9.5 21.25-21.25 21.25-11.73 0-21.25-9.52-21.25-21.25 0-11.74 9.52-21.25 21.25-21.25 11.74 0 21.25 9.5 21.25 21.25zM1232.3 690.17c0 11.73-9.5 21.25-21.24 21.25-11.74 0-21.25-9.52-21.25-21.25 0-11.74 9.52-21.25 21.26-21.25 11.73 0 21.25 9.5 21.25 21.25z" stroke="#5e5e5e" stroke-width="2" fill="#ffd6f5"/><path d="M1302.3 652.67c0 11.73-9.5 21.25-21.24 21.25-11.74 0-21.25-9.52-21.25-21.25 0-11.74 9.52-21.25 21.26-21.25 11.73 0 21.25 9.5 21.25 21.25z" stroke="#5e5e5e" stroke-width="2" fill="#c7e8ac"/><path d="M1093.4 659.46l26.8-26.8" stroke="#5e5e5e" stroke-width="2" fill="none"/><path d="M1094.12 660.15l-1.62 1.62.2-1.58-.12-1.34.12-.13M1120.5 631.2l.92 1.65-.53.52-1.42-1.4.96-.97" fill="#5e5e5e"/><path d="M1093.4 660.87l25.1 25.1" stroke="#5e5e5e" stroke-width="2" fill="none"/><path d="M1094.12 660.2l-1.42 1.4-.16-.16.15-1.25-.14-1.57M1119.36 685.43l-.3 2.53-1.28-1.3 1.4-1.4" fill="#5e5e5e"/><path d="M1163.67 689.23l25.4-65.63" stroke="#5e5e5e" stroke-width="2" fill="none"/><path d="M1164.6 689.57l-1.44 3.76-.2-.08.35-3.06-.08-1.17M1189.8 619.6l-.37 3.05.1 1.15-1.4-.54 1.45-3.75" fill="#5e5e5e"/><path d="M1178.8 533.9c3.32-.05 6.04 2.6 6.1 5.92l.3 24.25c.03 2.07 1.73 3.73 3.8 3.7 2.07-.03 2.52 1.1 1 2.5l-7.66 7.08c-2.44 2.24-6.43 2.3-8.92.1l-7.84-6.86c-1.56-1.38-1.15-2.5.93-2.53 2.08-.03 3.73-1.73 3.7-3.8l-.3-24.25c-.06-3.32 2.6-6.04 5.9-6.08z" stroke="#5e5e5e" stroke-width="2" fill="#fff"/><path d="M1163.66 623.6l24.8 65.63" stroke="#5e5e5e" stroke-width="2" fill="none"/><path d="M1164.6 623.27l-1.42.54.13-1.1-.24-3.15.13-.04M1188.8 690.15l.25 3.13-.12.05-1.42-3.77 1.44-.54" fill="#5e5e5e"/><path d="M1234.64 623.37l24 24" stroke="#5e5e5e" stroke-width="2" fill="none"/><path d="M1235.37 622.7l-1.42 1.4-.16-.16.14-1.25-.13-1.57M1259.6 646.93l-.2.53-.2 1.88-1.3-1.3 1.42-1.4" fill="#5e5e5e"/><path d="M1234.02 689.46l26.4-26.4" stroke="#5e5e5e" stroke-width="2" fill="none"/><path d="M1234.74 690.15l-1.6 1.62.17-1.58-.1-1.34.13-.13M1261.65 663.25l-.53.52-1.42-1.4.93-.93" fill="#5e5e5e"/><path d="M800 768.67c0-3.32 2.7-6 6-6h108c3.3 0 6 2.68 6 6v68c0 3.3-2.7 6-6 6H806c-3.3 0-6-2.7-6-6z" stroke="#5e5e5e" stroke-width="2" fill="#fff"/><g><use xlink:href="#j" transform="matrix(1,0,0,1,812,774.6673228346456) translate(23.339506172839506 31.77777777777778)"/></g><defs><path fill="#333" d="M30 0v-248h33v221h125V0H30" id="k"/><path fill="#333" d="M24-231v-30h32v30H24zM24 0v-190h32V0H24" id="l"/><path fill="#333" d="M117-194c89-4 53 116 60 194h-32v-121c0-31-8-49-39-48C34-167 62-67 57 0H25l-1-190h30c1 10-1 24 2 32 11-22 29-35 61-36" id="m"/><path fill="#333" d="M143 0L79-87 56-68V0H24v-261h32v163l83-92h37l-77 82L181 0h-38" id="n"/><path fill="#333" d="M135-143c-3-34-86-38-87 0 15 53 115 12 119 90S17 21 10-45l28-5c4 36 97 45 98 0-10-56-113-15-118-90-4-57 82-63 122-42 12 7 21 19 24 35" id="o"/><g id="a"><use transform="matrix(0.06172839506172839,0,0,0.06172839506172839,0,0)" xlink:href="#k"/><use transform="matrix(0.06172839506172839,0,0,0.06172839506172839,12.345679012345679,0)" xlink:href="#l"/><use transform="matrix(0.06172839506172839,0,0,0.06172839506172839,17.22222222222222,0)" xlink:href="#m"/><use transform="matrix(0.06172839506172839,0,0,0.06172839506172839,29.5679012345679,0)" xlink:href="#n"/><use transform="matrix(0.06172839506172839,0,0,0.06172839506172839,40.67901234567901,0)" xlink:href="#o"/></g><path fill="#333" d="M30 0v-248h187v28H63v79h144v27H63v87h162V0H30" id="p"/><path fill="#333" d="M210-169c-67 3-38 105-44 169h-31v-121c0-29-5-50-35-48C34-165 62-65 56 0H25l-1-190h30c1 10-1 24 2 32 10-44 99-50 107 0 11-21 27-35 58-36 85-2 47 119 55 194h-31v-121c0-29-5-49-35-48" id="q"/><path fill="#333" d="M115-194c53 0 69 39 70 98 0 66-23 100-70 100C84 3 66-7 56-30L54 0H23l1-261h32v101c10-23 28-34 59-34zm-8 174c40 0 45-34 45-75 0-40-5-75-45-74-42 0-51 32-51 76 0 43 10 73 51 73" id="r"/><path fill="#333" d="M100-194c63 0 86 42 84 106H49c0 40 14 67 53 68 26 1 43-12 49-29l28 8c-11 28-37 45-77 45C44 4 14-33 15-96c1-61 26-98 85-98zm52 81c6-60-76-77-97-28-3 7-6 17-6 28h103" id="s"/><path fill="#333" d="M85-194c31 0 48 13 60 33l-1-100h32l1 261h-30c-2-10 0-23-3-31C134-8 116 4 85 4 32 4 16-35 15-94c0-66 23-100 70-100zm9 24c-40 0-46 34-46 75 0 40 6 74 45 74 42 0 51-32 51-76 0-42-9-74-50-73" id="t"/><path fill="#333" d="M177-190C167-65 218 103 67 71c-23-6-38-20-44-43l32-5c15 47 100 32 89-28v-30C133-14 115 1 83 1 29 1 15-40 15-95c0-56 16-97 71-98 29-1 48 16 59 35 1-10 0-23 2-32h30zM94-22c36 0 50-32 50-73 0-42-14-75-50-75-39 0-46 34-46 75s6 73 46 73" id="u"/><g id="b"><use transform="matrix(0.06172839506172839,0,0,0.06172839506172839,0,0)" xlink:href="#p"/><use transform="matrix(0.06172839506172839,0,0,0.06172839506172839,14.814814814814813,0)" xlink:href="#q"/><use transform="matrix(0.06172839506172839,0,0,0.06172839506172839,33.2716049382716,0)" xlink:href="#r"/><use transform="matrix(0.06172839506172839,0,0,0.06172839506172839,45.61728395061728,0)" xlink:href="#s"/><use transform="matrix(0.06172839506172839,0,0,0.06172839506172839,57.962962962962955,0)" xlink:href="#t"/><use transform="matrix(0.06172839506172839,0,0,0.06172839506172839,70.30864197530863,0)" xlink:href="#t"/><use transform="matrix(0.06172839506172839,0,0,0.06172839506172839,82.65432098765432,0)" xlink:href="#l"/><use transform="matrix(0.06172839506172839,0,0,0.06172839506172839,87.53086419753086,0)" xlink:href="#m"/><use transform="matrix(0.06172839506172839,0,0,0.06172839506172839,99.87654320987654,0)" xlink:href="#u"/><use transform="matrix(0.06172839506172839,0,0,0.06172839506172839,112.22222222222223,0)" xlink:href="#o"/></g><g id="c"><use transform="matrix(0.06172839506172839,0,0,0.06172839506172839,0,0)" xlink:href="#p"/><use transform="matrix(0.06172839506172839,0,0,0.06172839506172839,14.814814814814813,0)" xlink:href="#q"/><use transform="matrix(0.06172839506172839,0,0,0.06172839506172839,33.2716049382716,0)" xlink:href="#r"/></g><path fill="#333" d="M27 0v-27h64v-190l-56 39v-29l58-41h29v221h61V0H27" id="v"/><use transform="matrix(0.06172839506172839,0,0,0.06172839506172839,0,0)" xlink:href="#v" id="d"/><path fill="#333" d="M101-251c82-7 93 87 43 132L82-64C71-53 59-42 53-27h129V0H18c2-99 128-94 128-182 0-28-16-43-45-43s-46 15-49 41l-32-3c6-41 34-60 81-64" id="w"/><use transform="matrix(0.06172839506172839,0,0,0.06172839506172839,0,0)" xlink:href="#w" id="e"/><path fill="#333" d="M137-103V0h-34v-103L8-248h37l75 118 75-118h37" id="x"/><use transform="matrix(0.06172839506172839,0,0,0.06172839506172839,0,0)" xlink:href="#x" id="f"/><g id="g"><use transform="matrix(0.06172839506172839,0,0,0.06172839506172839,0,0)" xlink:href="#p"/><use transform="matrix(0.06172839506172839,0,0,0.06172839506172839,14.814814814814813,0)" xlink:href="#q"/><use transform="matrix(0.06172839506172839,0,0,0.06172839506172839,33.2716049382716,0)" xlink:href="#r"/></g><use transform="matrix(0.06172839506172839,0,0,0.06172839506172839,0,0)" xlink:href="#x" id="h"/><path fill="#333" d="M87 75C49 33 22-17 22-94c0-76 28-126 65-167h31c-38 41-64 92-64 168S80 34 118 75H87" id="y"/><path fill="#333" d="M100-194c63 0 86 42 84 106H49c0 40 14 67 53 68 26 1 43-12 49-29l28 8c-11 28-37 45-77 45C44 4 14-33 15-96c1-61 26-98 85-98zm52 81c6-60-76-77-97-28-3 7-6 17-6 28h103zm-74-98c8-23 27-35 38-54h36v5l-58 49H78" id="z"/><path fill="#333" d="M141 0L90-78 38 0H4l68-98-65-92h35l48 74 47-74h35l-64 92 68 98h-35" id="A"/><path fill="#333" d="M59-47c-2 24 18 29 38 22v24C64 9 27 4 27-40v-127H5v-23h24l9-43h21v43h35v23H59v120" id="B"/><path fill="#333" d="M100-194c62-1 85 37 85 99 1 63-27 99-86 99S16-35 15-95c0-66 28-99 85-99zM99-20c44 1 53-31 53-75 0-43-8-75-51-75s-53 32-53 75 10 74 51 75" id="C"/><path fill="#333" d="M33-261c38 41 65 92 65 168S71 34 33 75H2C39 34 66-17 66-93S39-220 2-261h31" id="D"/><g id="i"><use transform="matrix(0.06172839506172839,0,0,0.06172839506172839,0,0)" xlink:href="#y"/><use transform="matrix(0.06172839506172839,0,0,0.06172839506172839,7.345679012345679,0)" xlink:href="#z"/><use transform="matrix(0.06172839506172839,0,0,0.06172839506172839,19.691358024691358,0)" xlink:href="#A"/><use transform="matrix(0.06172839506172839,0,0,0.06172839506172839,30.80246913580247,0)" xlink:href="#l"/><use transform="matrix(0.06172839506172839,0,0,0.06172839506172839,35.67901234567901,0)" xlink:href="#B"/><use transform="matrix(0.06172839506172839,0,0,0.06172839506172839,41.851851851851855,0)" xlink:href="#C"/><use transform="matrix(0.06172839506172839,0,0,0.06172839506172839,54.19753086419753,0)" xlink:href="#D"/></g><path fill="#333" d="M97-269c9-18 26-28 38-43h36v5l-54 38H97zM30 0v-248h187v28H63v79h144v27H63v87h162V0H30" id="E"/><g id="j"><use transform="matrix(0.06172839506172839,0,0,0.06172839506172839,0,0)" xlink:href="#E"/><use transform="matrix(0.06172839506172839,0,0,0.06172839506172839,14.814814814814813,0)" xlink:href="#A"/><use transform="matrix(0.06172839506172839,0,0,0.06172839506172839,25.925925925925924,0)" xlink:href="#l"/><use transform="matrix(0.06172839506172839,0,0,0.06172839506172839,30.80246913580247,0)" xlink:href="#B"/><use transform="matrix(0.06172839506172839,0,0,0.06172839506172839,36.97530864197531,0)" xlink:href="#C"/></g></defs></g></svg>